<svg xmlns="http://www.w3.org/2000/svg" viewBox="0 0 24 24" fill="none" color="#A855F7" stroke="currentColor" stroke-width="1.8" stroke-linecap="round" stroke-linejoin="round">
  <path d="M8.8 4.2c-1.8 0-3.2 1.4-3.2 3.1 0 .3 0 .5.1.8-1.2.5-2 1.6-2 3 0 .8.3 1.6.8 2.2-.5.6-.8 1.4-.8 2.3 0 1.8 1.5 3.3 3.3 3.3.6 0 1.2-.2 1.7-.5.6 1 1.7 1.6 3 1.6h.3V4.2H8.8Zm0 0c.2-1.2 1.3-2.2 2.7-2.2 1.5 0 2.7 1.2 2.7 2.7v15.1h.3c1.3 0 2.4-.6 3-1.6.5.3 1.1.5 1.7.5 1.8 0 3.3-1.5 3.3-3.3 0-.9-.3-1.7-.8-2.3.5-.6.8-1.4.8-2.2 0-1.4-.8-2.5-2-3 .1-.3.1-.5.1-.8 0-1.7-1.4-3.1-3.2-3.1h-3.2M7.1 8.5c.9.2 1.7.8 2.1 1.6m-2.5 5.2c.7-.3 1.6-.3 2.3.1m7.9-6.9c-.9.2-1.7.8-2.1 1.6m2.5 5.2c-.7-.3-1.6-.3-2.3.1" />
</svg>
