<svg xmlns="http://www.w3.org/2000/svg" viewBox="0 0 24 24" fill="none" color="#CBD5E1" stroke="currentColor" stroke-width="1.8" stroke-linecap="round" stroke-linejoin="round">
  <path d="M12 15.2a3.2 3.2 0 1 0 0-6.4 3.2 3.2 0 0 0 0 6.4Z" />
  <path d="M19.4 15a1.7 1.7 0 0 0 .3 1.9l.1.1a2 2 0 1 1-2.8 2.8l-.1-.1a1.7 1.7 0 0 0-1.9-.3 1.7 1.7 0 0 0-1 1.6V21a2 2 0 1 1-4 0v-.2a1.7 1.7 0 0 0-1-1.6 1.7 1.7 0 0 0-1.9.3l-.1.1A2 2 0 1 1 4.2 17l.1-.1a1.7 1.7 0 0 0 .3-1.9 1.7 1.7 0 0 0-1.6-1H3a2 2 0 1 1 0-4h.2a1.7 1.7 0 0 0 1.6-1 1.7 1.7 0 0 0-.3-1.9l-.1-.1A2 2 0 1 1 7 4.2l.1.1a1.7 1.7 0 0 0 1.9.3h.1a1.7 1.7 0 0 0 .9-1.6V3a2 2 0 1 1 4 0v.2a1.7 1.7 0 0 0 1 1.6 1.7 1.7 0 0 0 1.9-.3l.1-.1A2 2 0 1 1 19.8 7l-.1.1a1.7 1.7 0 0 0-.3 1.9v.1a1.7 1.7 0 0 0 1.6.9h.2a2 2 0 1 1 0 4H21a1.7 1.7 0 0 0-1.6 1Z" />
</svg>
